<svg version="1.1" xmlns="http://www.w3.org/2000/svg" xmlns:xlink="http://www.w3.org/1999/xlink" width="100%" height="100%" viewBox="0,0,256,256"><g fill="none" fill-rule="evenodd" stroke="none" stroke-width="1" stroke-linecap="butt" stroke-linejoin="round" stroke-miterlimit="2" stroke-dasharray="" stroke-dashoffset="0" font-family="none" font-weight="none" font-size="none" text-anchor="none" style="mix-blend-mode: normal"><g transform="scale(4,4)"><g transform="translate(-400,-320)"><g transform="translate(400,320)" id="github-apps-platform"><rect x="0" y="0" width="64" height="64" fill="none"></rect><g transform="translate(-400,-320)" fill="#0e8388"><path d="M426.968,362.73c-0.612,0.941 -0.968,2.064 -0.968,3.27c-2,1 -5,1 -6,0c-1.269,-1.269 -1,-2 -4,-4c-0.669,-0.446 -1.246,-0.571 -1.721,-0.633c-0.285,0.041 -0.52,0.246 -0.601,0.523c-0.08,0.276 0.009,0.575 0.227,0.763c0.781,0.606 1.824,1.534 2.095,2.347c1,3 3,5 6,5c1.81,0 3.096,-0.262 4,-0.597v4.467c0,1.361 -0.692,2.63 -1.837,3.366c-1.146,0.736 -2.587,0.839 -3.826,0.273c-9.629,-4.465 -16.337,-14.21 -16.337,-25.509c0,-15.454 12.546,-28 28,-28c15.454,0 28,12.546 28,28c0,11.299 -6.708,21.044 -16.356,25.468c-1.225,0.559 -2.65,0.457 -3.782,-0.27c-1.133,-0.728 -1.818,-1.982 -1.818,-3.328c-0.044,-3.685 -0.044,-7.87 -0.044,-7.87c0,-1.169 -0.341,-2.304 -0.969,-3.27c7.505,-0.918 10.969,-4.322 10.969,-12.23c0,-2.723 -0.924,-4.985 -2.411,-6.802c0.772,-2.083 0.966,-4.568 0.626,-6.692c-0.052,-0.269 -0.211,-0.505 -0.442,-0.653c-0.23,-0.147 -0.511,-0.193 -0.777,-0.128c-2.608,0.645 -4.658,1.638 -6.174,2.965c-2.246,-0.798 -4.632,-1.19 -6.822,-1.19c-2.19,0 -4.576,0.392 -6.822,1.19c-1.516,-1.327 -3.566,-2.32 -6.174,-2.965c-0.266,-0.065 -0.547,-0.019 -0.777,0.128c-0.231,0.148 -0.39,0.384 -0.442,0.653c-0.34,2.124 -0.146,4.609 0.626,6.692c-1.487,1.817 -2.411,4.079 -2.411,6.802c0,7.907 3.464,11.311 10.968,12.23z"></path></g><g transform="translate(-400,-320)" fill="#617881"><path d="M422.935,377.76c-0.858,0.206 -1.773,0.126 -2.598,-0.251c-9.629,-4.465 -16.337,-14.21 -16.337,-25.509c0,-15.454 12.546,-28 28,-28c0.314,0 0.626,0.005 0.935,0.015c-15.022,0.496 -27.064,12.845 -27.064,27.985c0,11.299 6.707,21.044 16.337,25.509c0.236,0.108 0.48,0.191 0.727,0.251zM445.931,336.479c0.304,-0.09 0.616,-0.174 0.936,-0.254c0.265,-0.065 0.547,-0.019 0.777,0.128c0.231,0.148 0.39,0.384 0.441,0.653c0.34,2.124 0.147,4.609 -0.625,6.692c1.487,1.817 2.411,4.079 2.411,6.802c0,7.908 -3.465,11.312 -10.969,12.23c0.627,0.966 0.969,2.101 0.969,3.27c0,0 0,4.185 0.044,7.87c0,1.346 0.685,2.6 1.817,3.328c0.375,0.24 0.782,0.413 1.204,0.515c-1.042,0.254 -2.154,0.076 -3.074,-0.515c-1.133,-0.728 -1.818,-1.982 -1.818,-3.328c-0.044,-3.685 -0.044,-7.87 -0.044,-7.87c0,-1.169 -0.341,-2.304 -0.969,-3.27c7.505,-0.918 10.969,-4.322 10.969,-12.23c0,-2.723 -0.924,-4.985 -2.411,-6.802c0.772,-2.083 0.966,-4.568 0.626,-6.692c-0.039,-0.202 -0.139,-0.386 -0.284,-0.527zM426,369.859c-0.613,0.088 -1.319,0.141 -2.129,0.141c-0.243,0 -0.48,-0.013 -0.709,-0.039c1.216,-0.085 2.141,-0.3 2.838,-0.558zM415.599,361.763c0.107,-0.211 0.311,-0.361 0.551,-0.396c0.475,0.062 1.051,0.187 1.721,0.633c3,2 2.73,2.731 4,4c0.36,0.36 0.98,0.591 1.719,0.691c-1.492,0.179 -2.95,-0.051 -3.59,-0.691c-1.269,-1.269 -1,-2 -4,-4c-0.138,-0.092 -0.271,-0.17 -0.401,-0.237zM432.935,338.024c0.315,-0.016 0.628,-0.024 0.936,-0.024c1.756,0 3.638,0.252 5.472,0.764c-0.18,0.138 -0.354,0.28 -0.521,0.426c-1.93,-0.686 -3.963,-1.072 -5.887,-1.166zM419.939,336.479c0.048,-0.047 0.101,-0.089 0.158,-0.126c0.231,-0.147 0.512,-0.193 0.778,-0.128c2.32,0.574 4.199,1.424 5.652,2.539c-0.453,0.126 -0.904,0.268 -1.349,0.426c-1.33,-1.164 -3.071,-2.071 -5.239,-2.711z"></path></g></g></g></g></g></svg>