<svg version="1.1" xmlns="http://www.w3.org/2000/svg" xmlns:xlink="http://www.w3.org/1999/xlink" width="100%" height="100%" viewBox="0,0,256,256"><g fill="none" fill-rule="evenodd" stroke="none" stroke-width="1" stroke-linecap="butt" stroke-linejoin="round" stroke-miterlimit="2" stroke-dasharray="" stroke-dashoffset="0" font-family="none" font-weight="none" font-size="none" text-anchor="none" style="mix-blend-mode: normal"><g transform="scale(4,4)"><g transform="translate(-400,0)"><g transform="translate(400,0)" id="linkedin-apps-platform"><rect x="0" y="0" width="64" height="64" fill="none"></rect><g transform="translate(-640,-20.8889) scale(1.55556,1.55556)" fill="#0e8388"><path d="M422,26.643c0,-0.171 -0.068,-0.334 -0.188,-0.455c-0.121,-0.12 -0.284,-0.188 -0.455,-0.188c-1.153,0 -3.561,0 -4.714,0c-0.171,0 -0.334,0.068 -0.455,0.188c-0.12,0.121 -0.188,0.284 -0.188,0.455c0,3.59 0,21.124 0,24.714c0,0.171 0.068,0.334 0.188,0.455c0.121,0.12 0.284,0.188 0.455,0.188c1.153,0 3.561,0 4.714,0c0.171,0 0.334,-0.068 0.455,-0.188c0.12,-0.121 0.188,-0.284 0.188,-0.455c0,-3.59 0,-21.124 0,-24.714z"></path></g><g transform="translate(-640,-20.8889) scale(1.55556,1.55556)" fill="#0e8388"><path d="M432,51.357c0,0.171 -0.068,0.334 -0.188,0.455c-0.121,0.12 -0.284,0.188 -0.455,0.188c-1.153,0 -3.561,0 -4.714,0c-0.171,0 -0.334,-0.068 -0.455,-0.188c-0.12,-0.121 -0.188,-0.284 -0.188,-0.455c0,-3.59 0,-21.124 0,-24.714c0,-0.171 0.068,-0.334 0.188,-0.455c0.121,-0.12 0.284,-0.188 0.455,-0.188c1.153,0 3.561,0 4.714,0c0.171,0 0.334,0.068 0.455,0.188c0.12,0.121 0.188,0.284 0.188,0.455c0,0.972 0,2.702 0,2.702c1.651,-2.04 4.174,-3.345 7,-3.345c4.967,0 9,4.033 9,9c0,0 0,13.257 0,16.357c0,0.171 -0.068,0.334 -0.188,0.455c-0.121,0.12 -0.284,0.188 -0.455,0.188c-1.153,0 -3.561,0 -4.714,0c-0.171,0 -0.334,-0.068 -0.455,-0.188c-0.12,-0.121 -0.188,-0.284 -0.188,-0.455c0,-2.868 0,-14.357 0,-14.357c0,-2.76 -2.24,-5 -5,-5c-2.76,0 -5,2.24 -5,5z"></path></g><g transform="translate(-640,-20.8889) scale(1.55556,1.55556)" fill="#0e8388"><circle cx="419" cy="19" r="3"></circle></g><g transform="translate(-400,0)" fill="#cbe4de"><path d="M416.444,57v2c0,0.265 -0.105,0.52 -0.292,0.707c-0.188,0.188 -0.442,0.293 -0.708,0.293c-1.794,0 -5.539,0 -7.333,0c-0.265,0 -0.519,-0.105 -0.707,-0.293c-0.188,-0.187 -0.293,-0.442 -0.293,-0.707v-2z"></path></g><g transform="translate(-400,0)" fill="#cbe4de"><path d="M456.889,57v2c0,0.265 -0.105,0.52 -0.293,0.707c-0.188,0.188 -0.442,0.293 -0.707,0.293c-1.794,0 -5.539,0 -7.333,0c-0.266,0 -0.52,-0.105 -0.708,-0.293c-0.187,-0.187 -0.292,-0.442 -0.292,-0.707v-2zM432,57v2c0,0.265 -0.105,0.52 -0.293,0.707c-0.187,0.188 -0.442,0.293 -0.707,0.293c-1.794,0 -5.539,0 -7.333,0c-0.266,0 -0.52,-0.105 -0.707,-0.293c-0.188,-0.187 -0.293,-0.442 -0.293,-0.707v-2z"></path></g></g></g></g></g></svg>